<svg height="512" viewBox="0 0 512 512" width="512" xmlns="http://www.w3.org/2000/svg"><g><g><path d="m152 152h-56l-80 160h480l-80-160h-56" fill="#3e3d42"/><path d="m96 345v-97h320v97" fill="#d8d7da"/><path d="m496 312v176h-480v-176h144l16 32h160l16-32z" fill="#787680"/><rect fill="#3e3d42" height="48" rx="20" width="192" x="160" y="392"/><path d="m128 248v-64h256v64" fill="#acabb1"/><path d="m152 184v-64h208v64" fill="#787680"/><circle cx="256" cy="88" fill="#ffda44" r="56"/></g><g><path d="m503.15 308.43.01-.01-80-160a8.011 8.011 0 0 0 -7.16-4.42h-48v-24a8 8 0 0 0 -8-8h-44.69a64 64 0 1 0 -118.62 0h-44.69a8 8 0 0 0 -8 8v24h-48a8.011 8.011 0 0 0 -7.16 4.42l-80 160h.01a7.969 7.969 0 0 0 -.85 3.58v176a8 8 0 0 0 8 8h480a8 8 0 0 0 8-8v-176a7.9 7.9 0 0 0 -.85-3.57zm-135.15-148.43h43.06l72 144h-59.06v-56a8 8 0 0 0 -8-8h-24v-56a8 8 0 0 0 -8-8h-16zm40 96v48h-56a8.011 8.011 0 0 0 -7.16 4.42l-13.78 27.58h-150.12l-13.78-27.58a8.011 8.011 0 0 0 -7.16-4.42h-56v-48zm-152-216a48 48 0 1 1 -48 48 48.051 48.051 0 0 1 48-48zm-96 88h46.09a63.9 63.9 0 0 0 99.82 0h46.09v48h-192zm216 64v48h-240v-48zm-275.06-32h43.06v16h-16a8 8 0 0 0 -8 8v56h-24a8 8 0 0 0 -8 8v56h-59.06zm387.06 320h-464v-160h131.06l13.78 27.58a8.011 8.011 0 0 0 7.16 4.42h160a8.011 8.011 0 0 0 7.16-4.42l13.78-27.58h131.06z"/><path d="m332 384h-152a28.032 28.032 0 0 0 -28 28v8a28.032 28.032 0 0 0 28 28h152a28.032 28.032 0 0 0 28-28v-8a28.032 28.032 0 0 0 -28-28zm12 36a12.013 12.013 0 0 1 -12 12h-152a12.013 12.013 0 0 1 -12-12v-8a12.013 12.013 0 0 1 12-12h152a12.013 12.013 0 0 1 12 12z"/><path d="m256 96a8 8 0 0 0 8-8v-32a8 8 0 0 0 -16 0v32a8 8 0 0 0 8 8z"/><circle cx="256" cy="112" r="8"/></g></g></svg>